<svg width="53" height="74" viewBox="0 0 53 74" xmlns="http://www.w3.org/2000/svg">
  <style>
    .letter { fill: #1B1B1B; }
    @media (prefers-color-scheme: dark) {
      .letter { fill: #FAFAFA; }
    }
  </style>
  <path class="letter" d="M18.644 61.708C15.576 61.708 12.8227 60.9803 10.384 59.525C7.98467 58.0303 6.077 56.0243 4.661 53.507C3.28433 50.9897 2.596 48.1577 2.596 45.011C2.596 41.8643 3.28433 39.0323 4.661 36.515C6.077 33.9977 7.98467 32.0113 10.384 30.556C12.8227 29.1007 15.5563 28.373 18.585 28.373C20.7877 28.373 22.774 28.7663 24.544 29.553C26.314 30.3003 27.8087 31.382 29.028 32.798V16.337H35.636V61H29.323V56.929C28.143 58.463 26.609 59.643 24.721 60.469C22.8723 61.295 20.8467 61.708 18.644 61.708ZM19.293 55.513C21.1417 55.513 22.7937 55.0607 24.249 54.156C25.7043 53.2513 26.8647 52.0123 27.73 50.439C28.5953 48.8657 29.028 47.0563 29.028 45.011C29.028 43.005 28.5953 41.2153 27.73 39.642C26.8647 38.0687 25.7043 36.8297 24.249 35.925C22.7937 35.0203 21.1417 34.568 19.293 34.568C17.405 34.568 15.7137 35.0203 14.219 35.925C12.7637 36.8297 11.623 38.0687 10.797 39.642C9.971 41.2153 9.558 43.005 9.558 45.011C9.558 47.0563 9.971 48.8657 10.797 50.439C11.623 52.0123 12.7637 53.2513 14.219 54.156C15.7137 55.0607 17.405 55.513 19.293 55.513Z"/>
  <circle cx="46.5" cy="54.5" r="6.5" fill="#8115DD"/>
</svg>
